<svg width="48" height="48" viewBox="0 0 48 48" fill="none" xmlns="http://www.w3.org/2000/svg">
<path d="M28.5 9C28.5 8.17153 27.8285 7.5 27 7.5H12C11.1715 7.5 10.5 8.17153 10.5 9V21C10.5 21.8285 11.1715 22.5 12 22.5H27C27.8285 22.5 28.5 21.8285 28.5 21V9ZM25.5 19.5H13.5V10.5H25.5V19.5Z" fill="white"/>
<path d="M45.7067 10.6362L39.7246 7.63622C38.9819 7.26413 38.0915 7.56666 37.7209 8.30709C37.3503 9.04828 37.6551 9.94922 38.3962 10.3198L40.6745 11.4578C40.6135 11.621 40.5347 11.7935 40.5347 11.9781C40.5347 13.9311 42 15.5805 43.5 16.2016V34.4781C43.5 35.3049 42.8269 35.9781 42 35.9781C41.1731 35.9781 40.5 35.3049 40.5 34.4781V22.4781C40.5 18.8564 37.5 15.8266 34.5 15.1297V5.97806C34.5 2.66972 31.88 0 28.5716 0H10.5716C7.26328 0 4.5 2.66972 4.5 5.97806V39.5508L2.32912 40.6362C1.82081 40.8904 1.5 41.4097 1.5 41.9781V46.4781C1.5 47.3064 2.24325 48 3.07162 48H36.0716C36.9 48 37.5 47.3064 37.5 46.4781V41.9781C37.5 41.4097 37.1792 40.8904 36.6709 40.6362L34.5 39.5508V18.2545C36 18.8756 37.5 20.5251 37.5 22.4781V34.4781C37.5 36.9595 39.5185 38.9781 42 38.9781C44.4815 38.9781 46.5 36.9595 46.5 34.4781V11.9781C46.5 11.4097 46.215 10.8904 45.7067 10.6362ZM34.5 45H4.5V42.9053L6.67087 41.8198C7.17919 41.5657 7.5 41.0464 7.5 40.478V5.97797C7.5 4.32347 8.91703 3 10.5716 3H28.5716C30.2261 3 31.5 4.32347 31.5 5.97806V40.4781C31.5 41.0465 31.8208 41.5658 32.3291 41.8199L34.5 42.9053V45Z" fill="white"/>
</svg>
