<svg width="48" height="48" viewBox="0 0 48 48" fill="none" xmlns="http://www.w3.org/2000/svg">
<path d="M47.9898 21.0143C46.297 7.08174 31.8624 -3.18232 16.9522 0.90881C12.4174 2.15305 8.14317 5.28419 4.91669 9.72529C1.79202 14.0262 0 19.1885 0 23.8883L9.37495e-05 30.6229C9.37495e-05 32.2731 0.970776 33.7807 2.47311 34.4635C2.48717 34.4699 2.50142 34.4761 2.51577 34.4821L33.5732 47.3783C37.7181 49.0972 42.5179 47.1412 44.2274 42.8391C44.3895 42.4312 44.5547 41.9783 44.7202 41.5068L45.9649 42.1291C46.1634 42.2284 46.3788 42.2775 46.5937 42.2775C46.8508 42.2775 47.1073 42.2071 47.3331 42.0675C47.7477 41.8113 48 41.3587 48 40.8713V21.1839C48 21.1569 47.9921 21.0341 47.9898 21.0143ZM41.6136 41.8004C40.4947 44.616 37.364 45.9055 34.6509 44.7804L3.61939 31.895C3.12861 31.6637 2.81258 31.1664 2.81258 30.6229L2.81248 23.8882C2.81248 15.116 9.62845 5.83469 17.6965 3.62098C30.0709 0.225657 42.3964 8.03667 44.8923 19.5541L27.4294 17.3712C24.9167 17.057 22.6875 19.0175 22.6875 21.5573V27.8832C22.6875 29.4914 23.5811 30.9372 25.0195 31.6565L42.1833 40.2384C41.9889 40.8018 41.7961 41.3411 41.6136 41.8004ZM28.3124 20.316V30.1585L26.2773 29.141C25.7978 28.9013 25.4999 28.4193 25.4999 27.8832V21.5574C25.4999 20.7007 26.2501 20.0581 27.0806 20.162L28.3124 20.316ZM45.1873 38.596L31.1249 31.5648V20.6675L45.1873 22.4253V38.596Z" fill="white"/>
<path d="M11.2501 19.7776C8.14848 19.7776 5.62512 22.3009 5.62512 25.4026C5.62512 28.5042 8.14848 31.0275 11.2501 31.0275C14.3517 31.0275 16.875 28.5042 16.875 25.4026C16.875 22.3009 14.3517 19.7776 11.2501 19.7776ZM11.2501 28.215C9.69928 28.215 8.4376 26.9534 8.4376 25.4026C8.4376 23.8518 9.69928 22.5901 11.2501 22.5901C12.8009 22.5901 14.0626 23.8518 14.0626 25.4026C14.0626 26.9534 12.8009 28.215 11.2501 28.215Z" fill="white"/>
</svg>
