<svg width="48" height="48" viewBox="0 0 48 48" fill="none" xmlns="http://www.w3.org/2000/svg">
<path d="M45.9449 36.0056L35.8735 25.9343C34.8524 24.9152 33.4677 24.1919 31.9596 23.9619L36.3995 19.522C39.545 20.0814 42.8117 19.0731 45.0905 16.7941C48.0339 13.8507 48.8066 9.35065 47.013 5.59624C46.5949 4.72136 45.4357 4.52336 44.7511 5.2083L41.527 8.43246H39.5394V6.44496L42.7636 3.2208C43.4491 2.53539 43.2497 1.37645 42.3756 0.958981C38.6213 -0.834554 34.1211 -0.061959 31.1776 2.88161C28.8987 5.16049 27.8904 8.42693 28.4499 11.5726L22.993 17.0295L15.319 9.35562L16.3128 8.36178C16.9595 7.71518 16.8248 6.63246 16.0421 6.16287L6.1047 0.200354C5.55176 -0.131522 4.84385 -0.0442402 4.38785 0.411761L0.412748 4.38677C-0.0432526 4.84277 -0.130347 5.55058 0.201342 6.10362L6.16395 16.0412C6.63786 16.8313 7.72133 16.9534 8.36286 16.3119L9.35671 15.318L17.0306 22.9919L11.5737 28.4488C8.4282 27.8894 5.16157 28.8978 2.88269 31.1766C-0.0608779 34.1201 -0.833567 38.6202 0.960062 42.3745C1.37809 43.2494 2.53732 43.4474 3.22197 42.7625L6.44604 39.5383H8.43355V41.5258L5.20938 44.75C4.52388 45.4354 4.72329 46.5943 5.59732 47.0118C6.94676 47.6565 8.3922 47.9696 9.82742 47.9695C12.3851 47.9695 14.9097 46.9747 16.7952 45.0893C19.0741 42.8104 20.0825 39.5439 19.523 36.3982L23.9631 31.9581C24.1931 33.4665 24.9167 34.8516 25.9364 35.8732L36.0067 45.9435C38.7423 48.6792 43.1934 48.6915 45.9452 45.9432C48.6841 43.2028 48.684 38.7448 45.9449 36.0056ZM7.64811 13.0516L3.17613 5.5984L5.59938 3.17524L13.0525 7.64712C12.5338 8.16584 8.34852 12.3512 7.64811 13.0516ZM11.344 13.3306C12.6386 12.0359 12.2475 12.4272 13.3316 11.343L21.0054 19.0169L19.0179 21.0044L11.344 13.3306ZM16.9912 34.9551C16.6364 35.3099 16.4976 35.8268 16.627 36.3116C17.2733 38.7313 16.5762 41.3332 14.8076 43.1019C13.218 44.6915 10.9933 45.3949 8.84417 45.0904L10.8326 43.1019C11.0961 42.8384 11.2443 42.4809 11.2443 42.1083V38.1331C11.2443 37.3569 10.615 36.7277 9.83886 36.7277H5.86376C5.49092 36.7277 5.13354 36.8758 4.87001 37.1393L2.88157 39.1278C2.57716 36.9784 3.28057 34.7538 4.87001 33.1643C6.63861 31.3957 9.24055 30.6985 11.6603 31.3449C12.1451 31.4743 12.662 31.3356 13.0168 30.9809C13.3289 30.6688 30.3585 13.6392 30.9819 13.0158C31.3366 12.6611 31.4755 12.1441 31.346 11.6593C30.6997 9.23965 31.3968 6.6378 33.1654 4.86902C34.7549 3.27949 36.9794 2.5758 39.1289 2.88058L37.1404 4.86902C36.8769 5.13255 36.7288 5.49002 36.7288 5.86268V9.83769C36.7288 10.6138 37.358 11.2431 38.1342 11.2431H42.1093C42.4821 11.2431 42.8395 11.095 43.103 10.8314L45.0915 8.843C45.3959 10.9924 44.6925 13.217 43.103 14.8064C41.3344 16.575 38.7324 17.2721 36.3127 16.6259C35.8279 16.4964 35.3111 16.6351 34.9562 16.9899L16.9912 34.9551ZM43.958 43.9557C42.3105 45.6011 39.6357 45.5979 37.9943 43.9564L27.9249 33.887C26.5015 32.4607 26.0656 29.9759 27.9781 27.9771C29.9768 26.0646 32.4617 26.5006 33.887 27.9228L43.9573 37.9931C45.6008 39.6367 45.6007 42.3118 43.958 43.9557Z" fill="white"/>
<path d="M41.9384 39.9501L32.007 30.0186C31.4583 29.4698 30.5683 29.4698 30.0195 30.0186C29.4707 30.5674 29.4707 31.4573 30.0195 32.0061L39.9509 41.9375C40.4997 42.4863 41.3897 42.4863 41.9384 41.9375C42.4873 41.3887 42.4873 40.4989 41.9384 39.9501Z" fill="white"/>
</svg>
