<svg width="48" height="48" viewBox="0 0 48 48" fill="none" xmlns="http://www.w3.org/2000/svg">
<path d="M46.5713 33.0165C47.311 32.9763 47.8989 32.3647 47.8989 31.6142C47.8989 27.5676 44.6507 24.3977 40.504 24.3977H39.1337L37.4587 16.4475C39.075 15.7453 40.2086 14.1326 40.2086 12.2592C40.2086 9.74278 38.1638 7.69547 35.6504 7.69547H29.1709C28.3952 7.69547 27.7663 8.32509 27.7663 9.10172V10.853H24.3137C23.538 10.853 22.9091 11.4826 22.9091 12.2592C22.9091 13.0358 23.538 13.6655 24.3137 13.6655H27.7663V15.4167C27.7663 16.1933 28.3952 16.823 29.1709 16.823H29.7945C28.6316 18.1982 27.9282 19.9747 27.9282 21.9135V29.9159C27.9282 29.957 27.8949 29.9902 27.854 29.9902H22.1802C22.1475 29.9902 22.1182 29.9684 22.109 29.937L20.5794 24.7618C21.8122 24.4321 22.723 23.3047 22.723 21.968C22.723 18.7939 20.1439 16.2116 16.9737 16.2116H4.31869C1.93744 16.2115 0 18.1513 0 20.5356C0 22.7152 1.61934 24.5224 3.71663 24.8167C1.49175 26.8093 0.0887813 29.7039 0.0887813 32.9209V37.2989C0.0887813 38.0755 0.717656 38.7052 1.49334 38.7052H2.70863C3.36281 41.9714 6.24919 44.4398 9.70116 44.4398C13.1531 44.4398 16.0395 41.9714 16.6937 38.7052H33.8752C34.5294 41.9714 37.4158 44.4398 40.8678 44.4398C44.8004 44.4398 47.9999 41.2364 47.9999 37.2989C48 35.6935 47.4679 34.2105 46.5713 33.0165V33.0165ZM44.8598 30.2079H41.6979C41.4254 30.1762 41.1488 30.158 40.8679 30.158C40.3644 30.158 39.8734 30.2112 39.3992 30.311V27.2102H40.5041C42.5612 27.2102 44.2619 28.4483 44.8598 30.2079V30.2079ZM30.5753 10.5079H35.6504C36.6149 10.5079 37.3996 11.2935 37.3996 12.2591C37.3996 13.2247 36.6149 14.0104 35.6504 14.0104H30.5753V10.5079ZM22.1803 32.8027H27.8541C29.444 32.8027 30.7373 31.5077 30.7373 29.9158V21.9134C30.7373 19.4963 32.4329 17.4682 34.6958 16.9588L36.5902 25.9504V31.5888C35.2156 32.6237 34.2257 34.1437 33.8753 35.8926H19.9113C19.2553 30.8471 15.0889 27.0723 9.88856 27.0723C7.56966 27.0723 5.48784 27.8298 3.84534 29.132C5.20209 26.5921 7.87697 24.8597 10.9493 24.8597H17.6793L19.4157 30.735C19.7753 31.9524 20.9122 32.8027 22.1803 32.8027ZM3.012 35.8926C3.25744 34.3965 3.89653 33.047 4.87387 32.0013C6.14953 30.6364 7.93041 29.8847 9.88837 29.8847C13.5111 29.8847 16.4377 32.4306 17.066 35.8925H3.012V35.8926ZM4.31869 22.0472C3.48628 22.0472 2.80903 21.3691 2.80903 20.5356C2.80903 19.702 3.48628 19.0239 4.31869 19.0239H16.9737C18.595 19.0239 19.914 20.3445 19.914 21.9678C19.902 22.0256 19.8094 22.0639 19.637 22.047C18.4685 22.047 18.8025 22.047 18.5591 22.047C16.8809 22.0472 4.32684 22.0472 4.31869 22.0472V22.0472ZM9.70116 41.6272C7.809 41.6272 6.198 40.4033 5.61356 38.7051H13.7888C13.2043 40.4033 11.5933 41.6272 9.70116 41.6272ZM40.8679 41.6272C38.4841 41.6272 36.5448 39.6855 36.5448 37.2988C36.5448 34.9121 38.4842 32.9705 40.8679 32.9705C43.2517 32.9705 45.191 34.9121 45.191 37.2988C45.191 39.6855 43.2516 41.6272 40.8679 41.6272Z" fill="white"/>
<path d="M40.8679 38.7144C41.6488 38.7144 42.2818 38.0807 42.2818 37.2989C42.2818 36.5171 41.6488 35.8834 40.8679 35.8834C40.0871 35.8834 39.4541 36.5171 39.4541 37.2989C39.4541 38.0807 40.0871 38.7144 40.8679 38.7144Z" fill="white"/>
<path d="M1.4634 12.1353H14.0604C14.8361 12.1353 15.465 11.5056 15.465 10.729C15.465 9.95238 14.8361 9.32275 14.0604 9.32275H1.4634C0.687713 9.32275 0.0588379 9.95238 0.0588379 10.729C0.0588379 11.5056 0.687713 12.1353 1.4634 12.1353V12.1353Z" fill="white"/>
<path d="M6.12966 6.37274H18.8352C19.6109 6.37274 20.2398 5.74312 20.2398 4.96649C20.2398 4.18987 19.6109 3.56024 18.8352 3.56024H6.12966C5.35397 3.56024 4.7251 4.18987 4.7251 4.96649C4.7251 5.74312 5.35397 6.37274 6.12966 6.37274Z" fill="white"/>
</svg>
