<svg width="48" height="48" viewBox="0 0 48 48" fill="none" xmlns="http://www.w3.org/2000/svg">
<path d="M38 9H10C8.4087 9 6.88258 9.63214 5.75736 10.7574C4.63214 11.8826 4 13.4087 4 15V33C4 34.5913 4.63214 36.1174 5.75736 37.2426C6.88258 38.3679 8.4087 39 10 39H38C39.5913 39 41.1174 38.3679 42.2426 37.2426C43.3679 36.1174 44 34.5913 44 33V15C44 13.4087 43.3679 11.8826 42.2426 10.7574C41.1174 9.63214 39.5913 9 38 9ZM40 33C40 33.5304 39.7893 34.0391 39.4142 34.4142C39.0391 34.7893 38.5304 35 38 35H10C9.46957 35 8.96086 34.7893 8.58579 34.4142C8.21071 34.0391 8 33.5304 8 33V15C8 14.4696 8.21071 13.9609 8.58579 13.5858C8.96086 13.2107 9.46957 13 10 13H38C38.5304 13 39.0391 13.2107 39.4142 13.5858C39.7893 13.9609 40 14.4696 40 15V33ZM32 21C30.9367 21.0074 29.8944 21.2973 28.98 21.84C28.069 21.2995 27.0312 21.0097 25.9719 21.0002C24.9127 20.9908 23.8698 21.2619 22.9493 21.786C22.0288 22.3102 21.2634 23.0687 20.7311 23.9845C20.1987 24.9003 19.9182 25.9407 19.9182 27C19.9182 28.0593 20.1987 29.0997 20.7311 30.0155C21.2634 30.9313 22.0288 31.6898 22.9493 32.214C23.8698 32.7381 24.9127 33.0092 25.9719 32.9998C27.0312 32.9903 28.069 32.7005 28.98 32.16C29.7756 32.632 30.6696 32.9137 31.5921 32.983C32.5145 33.0523 33.4406 32.9073 34.2978 32.5595C35.155 32.2116 35.9201 31.6702 36.5334 30.9777C37.1467 30.2851 37.5916 29.4601 37.8332 28.5671C38.0749 27.6742 38.1067 26.7374 37.9264 25.8301C37.746 24.9227 37.3583 24.0694 36.7935 23.3367C36.2287 22.6041 35.5022 22.0119 34.6706 21.6065C33.8391 21.2012 32.9251 20.9936 32 21V21ZM26.34 29C26.2269 29.0097 26.1131 29.0097 26 29C25.4696 29 24.9609 28.7893 24.5858 28.4142C24.2107 28.0391 24 27.5304 24 27C24 26.4696 24.2107 25.9609 24.5858 25.5858C24.9609 25.2107 25.4696 25 26 25C26.1131 24.9903 26.2269 24.9903 26.34 25C25.8874 26.24 25.8874 27.6 26.34 28.84V29ZM32 29C31.6044 29 31.2178 28.8827 30.8889 28.6629C30.56 28.4432 30.3036 28.1308 30.1522 27.7654C30.0009 27.3999 29.9613 26.9978 30.0384 26.6098C30.1156 26.2219 30.3061 25.8655 30.5858 25.5858C30.8655 25.3061 31.2219 25.1156 31.6098 25.0384C31.9978 24.9613 32.3999 25.0009 32.7654 25.1522C33.1308 25.3036 33.4432 25.56 33.6629 25.8889C33.8827 26.2178 34 26.6044 34 27C34 27.5304 33.7893 28.0391 33.4142 28.4142C33.0391 28.7893 32.5304 29 32 29Z" fill="#FF961C"/>
</svg>