<svg width="48" height="48" viewBox="0 0 48 48" fill="none" xmlns="http://www.w3.org/2000/svg">
<path d="M10.5 9C4.71 9 0 13.71 0 19.5C0 24.888 8.424 34.431 9.384 35.502C9.669 35.817 10.074 36 10.5 36C10.926 36 11.331 35.817 11.616 35.502C12.576 34.431 21 24.888 21 19.5C21 13.71 16.29 9 10.5 9ZM10.5 32.211C7.224 28.326 3 22.362 3 19.5C3 15.366 6.366 12 10.5 12C14.634 12 18 15.366 18 19.5C18 22.359 13.776 28.326 10.5 32.211Z" fill="black"/>
<path d="M10.5 15C8.019 15 6 17.019 6 19.5C6 21.981 8.019 24 10.5 24C12.981 24 15 21.981 15 19.5C15 17.019 12.981 15 10.5 15ZM10.5 21C9.672 21 9 20.328 9 19.5C9 18.672 9.672 18 10.5 18C11.328 18 12 18.672 12 19.5C12 20.328 11.328 21 10.5 21Z" fill="black"/>
<path d="M46.5 0H34.5C33.672 0 33 0.672 33 1.5V10.5V16.5C33 17.328 33.672 18 34.5 18C35.328 18 36 17.328 36 16.5V12H46.5C47.328 12 48 11.328 48 10.5V1.5C48 0.672 47.328 0 46.5 0ZM45 9H36V3H45V9Z" fill="black"/>
<path d="M42 33H27C25.347 33 24 31.653 24 30C24 28.347 25.347 27 27 27H30.276C30.897 28.743 32.547 30 34.5 30C36.981 30 39 27.981 39 25.5C39 23.019 36.981 21 34.5 21C32.547 21 30.897 22.257 30.276 24H27C23.691 24 21 26.691 21 30C21 33.309 23.691 36 27 36H42C43.653 36 45 37.347 45 39C45 40.653 43.653 42 42 42H14.724C14.103 40.257 12.453 39 10.5 39C8.019 39 6 41.019 6 43.5C6 45.981 8.019 48 10.5 48C12.453 48 14.103 46.743 14.724 45H42C45.309 45 48 42.309 48 39C48 35.691 45.309 33 42 33ZM34.5 24C35.328 24 36 24.672 36 25.5C36 26.328 35.328 27 34.5 27C33.672 27 33 26.328 33 25.5C33 24.672 33.672 24 34.5 24ZM10.5 45C9.672 45 9 44.328 9 43.5C9 42.672 9.672 42 10.5 42C11.328 42 12 42.672 12 43.5C12 44.328 11.328 45 10.5 45Z" fill="black"/>
</svg>