<svg width="48" height="48" viewBox="0 0 48 48" fill="none" xmlns="http://www.w3.org/2000/svg">
<path d="M18.4319 22.9203C17.8828 22.3711 16.9923 22.3711 16.4431 22.9203C15.894 23.4695 15.894 24.3598 16.4431 24.909L20.8182 29.2841C21.0928 29.5587 21.4527 29.696 21.8125 29.696C22.1723 29.696 22.5323 29.5588 22.8068 29.2841L31.5568 20.5341C32.1059 19.9849 32.1059 19.0946 31.5568 18.5454C31.0077 17.9962 30.1172 17.9962 29.568 18.5454L21.8124 26.3009L18.4319 22.9203Z" fill="black"/>
<path d="M41.8041 6.5625C37.7508 6.5625 34.058 4.33538 32.1669 0.750187C31.9237 0.28875 31.4448 0 30.9232 0H17.0768C16.5552 0 16.0763 0.28875 15.833 0.750187C13.942 4.33538 10.2492 6.5625 6.1875 6.5625C5.41087 6.5625 4.78125 7.19212 4.78125 7.96875V22.2892C4.78125 28.0462 6.58003 33.5435 9.98306 38.1869C13.3863 42.8303 18.0867 46.201 23.5765 47.9347C23.7143 47.9782 23.8571 47.9999 24 47.9999C24.1429 47.9999 24.2857 47.9782 24.4235 47.9347C29.9133 46.201 34.6137 42.8303 38.0169 38.1869C41.42 33.5435 43.2188 28.0462 43.2188 22.2892V7.96875C43.2188 7.19212 42.5807 6.5625 41.8041 6.5625V6.5625ZM40.4062 22.2892C40.4062 32.6967 33.8319 41.8135 24 45.1148C14.1681 41.8135 7.59375 32.6967 7.59375 22.2892V9.30441C11.8498 8.87241 15.6561 6.48394 17.8948 2.8125H30.1053C32.3428 6.48206 36.1468 8.86997 40.4062 9.30375V22.2892Z" fill="black"/>
<path d="M29.0248 6.14138C28.7577 5.81456 28.3579 5.625 27.9358 5.625H20.0641C19.642 5.625 19.2423 5.81456 18.9753 6.14138C16.9868 8.57428 14.3581 10.379 11.3733 11.3602C10.7963 11.5498 10.4062 12.0886 10.4062 12.6961V22.2892C10.4062 30.9013 15.5296 38.6024 23.4588 41.9087C23.632 41.9809 23.8161 42.017 24 42.017C24.1839 42.017 24.3681 41.9809 24.5412 41.9087C32.4704 38.6024 37.5938 30.9013 37.5938 22.2892V12.697C37.5938 12.0896 37.2038 11.5508 36.6268 11.3611C33.6419 10.3795 31.0132 8.57466 29.0248 6.14138V6.14138ZM34.7812 22.2892C34.7812 29.5646 30.569 36.0903 24 39.0771C17.431 36.0904 13.2188 29.5647 13.2188 22.2892V13.6854C16.1048 12.5638 18.671 10.7685 20.7158 8.4375H27.2842C29.329 10.7688 31.895 12.5644 34.7812 13.6862V22.2892Z" fill="black"/>
</svg>