<svg width="48" height="48" viewBox="0 0 48 48" fill="none" xmlns="http://www.w3.org/2000/svg">
<g clip-path="url(#clip0)">
<path d="M46.1256 6.07172C46.1221 6.07097 46.1186 6.07022 46.1151 6.06956L35.2075 3.90759V2.457C35.2075 1.10222 34.1053 0 32.7504 0H2.46139C1.10661 0 0.00439453 1.10222 0.00439453 2.457V45.5429C0.00439453 46.8978 1.10661 48 2.46139 48H32.7504C34.1052 48 35.2074 46.8978 35.2074 45.543V42.1827L47.8437 9.19837C48.3556 7.85044 47.5383 6.36291 46.1256 6.07172V6.07172ZM32.395 45.1875H2.81689V2.8125H32.395V45.1875ZM35.2075 34.3209V6.77484L45.0156 8.71884L35.2075 34.3209Z" fill="#202325"/>
<path d="M17.6052 8.15625C11.4015 8.15625 6.35522 13.176 6.35522 19.4063C6.35522 25.6329 11.3967 30.6526 17.5987 30.6562C17.6004 30.6562 17.6023 30.6563 17.6041 30.6563C17.6045 30.6563 17.6048 30.6563 17.6051 30.6563C17.6055 30.6563 17.6058 30.6563 17.6062 30.6563C17.6075 30.6563 17.6088 30.6562 17.6101 30.6562C23.8112 30.6534 28.8552 25.6079 28.8552 19.4063C28.8552 13.203 23.8085 8.15625 17.6052 8.15625V8.15625ZM25.9249 18H22.3314C22.1815 15.5909 21.6498 13.3756 20.8287 11.6093C23.4692 12.705 25.4369 15.1043 25.9249 18ZM17.6052 27.2089C16.6987 25.9188 15.8973 23.7041 15.6967 20.8125H19.5137C19.3131 23.7041 18.5117 25.9187 17.6052 27.2089ZM15.6969 18C15.898 15.1082 16.6992 12.8937 17.6052 11.6038C18.5117 12.8939 19.3131 15.1085 19.5137 18H15.6969ZM14.3842 11.6051C13.5623 13.3719 13.0298 15.5888 12.8794 18H9.28416C9.76041 15.1386 11.671 12.7193 14.3842 11.6051V11.6051ZM9.28426 20.8125H12.8792C13.0291 23.2234 13.5616 25.4402 14.3836 27.2072C11.6708 26.0931 9.76041 23.6738 9.28426 20.8125ZM20.8286 27.2033C21.6497 25.4369 22.1814 23.2216 22.3313 20.8125H25.9248C25.4369 23.7082 23.4692 26.1075 20.8286 27.2033V27.2033Z" fill="#202325"/>
<path d="M27.1443 37.0312H8.06616C7.28954 37.0312 6.65991 37.6609 6.65991 38.4375C6.65991 39.2141 7.28954 39.8438 8.06616 39.8438H27.1443C27.9209 39.8438 28.5505 39.2141 28.5505 38.4375C28.5505 37.6609 27.9209 37.0312 27.1443 37.0312Z" fill="#202325"/>
</g>
<defs>
<clipPath id="clip0">
<rect width="48" height="48" fill="white"/>
</clipPath>
</defs>
</svg>
