<?xml version="1.0" standalone="no"?>
<!DOCTYPE svg PUBLIC "-//W3C//DTD SVG 20010904//EN"
 "http://www.w3.org/TR/2001/REC-SVG-20010904/DTD/svg10.dtd">
<svg version="1.0" xmlns="http://www.w3.org/2000/svg"
 width="700.000000pt" height="700.000000pt" viewBox="0 0 700.000000 700.000000"
 preserveAspectRatio="xMidYMid meet">
<metadata>
Created by potrace 1.11, written by Peter Selinger 2001-2013
</metadata>
<g transform="translate(0.000000,700.000000) scale(0.100000,-0.100000)"
fill="#000000" stroke="none">
<path d="M818 6948 c15 -110 5 -618 -13 -648 -1 -3 -6 -30 -9 -61 -4 -31 -9
-67 -11 -80 -3 -13 -7 -41 -10 -64 -3 -22 -10 -62 -15 -90 -5 -27 -12 -66 -14
-85 -8 -50 -13 -75 -52 -270 -20 -96 -38 -186 -40 -200 -3 -14 -16 -77 -30
-140 -14 -63 -27 -124 -29 -135 -2 -15 -82 -380 -110 -505 -7 -29 -77 -345
-80 -362 -9 -40 -89 -389 -106 -463 -11 -44 -22 -90 -24 -102 -3 -12 -21 -77
-41 -145 -49 -170 -110 -294 -179 -362 l-55 -54 0 -146 0 -146 93 -1 c150 0
339 2 382 6 150 13 178 18 245 40 56 19 103 52 136 96 23 31 60 129 70 185 3
16 9 47 14 69 5 22 12 63 16 90 3 28 8 53 10 56 2 3 8 34 14 70 14 88 18 113
35 199 8 41 17 91 20 110 6 40 16 96 21 125 17 88 57 305 60 325 3 14 13 70
24 125 11 55 21 111 24 125 4 24 31 171 40 216 2 12 7 39 10 60 4 22 20 109
36 194 16 85 32 169 35 185 5 30 11 60 20 105 3 14 8 43 11 65 3 22 10 59 15
83 5 23 12 59 15 80 3 20 7 44 9 52 2 8 7 29 10 45 2 17 7 41 10 55 3 14 10
52 16 85 5 33 19 105 29 160 11 55 21 111 24 125 6 36 25 140 31 170 8 38 46
241 51 275 3 17 9 47 14 67 4 20 4 40 0 45 -3 4 -38 101 -76 215 l-69 208
-292 0 -292 0 7 -52z"/>
<path d="M1750 6997 c0 -2 16 -43 36 -92 34 -85 36 -94 30 -166 -4 -42 -9 -90
-11 -105 -3 -16 -7 -42 -10 -59 -2 -16 -7 -52 -10 -80 -3 -27 -12 -90 -20
-140 -8 -49 -17 -107 -20 -127 -11 -79 -16 -115 -25 -168 -5 -30 -12 -70 -15
-87 -3 -18 -7 -48 -10 -65 -11 -65 -16 -93 -20 -118 -4 -22 -28 -166 -41 -245
-3 -16 -12 -67 -20 -113 -8 -45 -17 -99 -20 -118 -3 -20 -7 -45 -9 -54 -2 -10
-7 -40 -11 -67 -5 -26 -9 -50 -9 -53 -1 -3 -5 -27 -10 -55 -4 -27 -9 -59 -11
-70 -7 -34 -45 -259 -49 -285 -2 -14 -14 -81 -25 -150 -12 -69 -24 -138 -26
-155 -2 -16 -8 -50 -14 -75 -6 -25 -12 -61 -15 -80 -2 -19 -13 -89 -25 -155
-11 -66 -23 -131 -25 -145 -6 -36 -134 -769 -140 -805 -3 -16 -13 -68 -21
-115 -9 -47 -18 -94 -20 -105 -33 -180 -57 -219 -136 -224 -113 -8 -252 -3
-708 23 -58 3 -150 9 -204 12 -55 3 -102 5 -105 6 -31 3 -31 -2 -31 -531 l0
-530 263 -1 c144 -1 416 -3 605 -4 l343 -3 117 114 c227 221 329 318 386 368
62 53 115 90 120 84 2 -2 60 -116 128 -254 185 -371 285 -522 500 -750 42 -45
39 -51 -38 -60 -27 -3 -96 -12 -154 -20 -58 -9 -123 -18 -145 -21 -22 -3 -51
-7 -65 -9 -32 -4 -108 -16 -140 -20 -20 -3 -340 -48 -497 -70 -18 -3 -50 -7
-70 -10 -21 -3 -69 -10 -108 -16 -38 -5 -81 -11 -95 -13 -14 -2 -47 -7 -73
-11 -27 -4 -56 -8 -65 -10 -10 -1 -39 -6 -67 -9 -27 -4 -61 -8 -75 -11 -14 -2
-41 -6 -60 -9 -71 -9 -136 -19 -155 -22 -23 -4 -211 -32 -270 -40 -22 -3 -47
-7 -55 -9 -8 -2 -37 -6 -65 -10 -43 -5 -88 -12 -195 -29 -14 -3 -35 -5 -47 -5
-22 -1 -23 -4 -23 -101 l0 -100 98 -1 c53 0 183 -2 287 -4 841 -18 1851 -28
2725 -29 1008 0 1253 9 1599 60 71 10 238 53 304 78 157 59 399 206 588 358
350 281 605 650 752 1089 41 122 80 285 93 384 3 22 7 49 9 60 22 107 22 515
0 620 -3 11 -7 36 -10 55 -30 208 -110 454 -212 655 -118 235 -234 387 -471
623 -96 95 -172 174 -171 176 2 1 95 26 206 54 307 78 417 133 444 221 27 90
-65 221 -261 371 -25 19 -47 37 -50 40 -3 3 -21 17 -40 30 -19 13 -37 27 -40
30 -3 4 -48 35 -100 71 -52 35 -97 67 -100 70 -8 9 -210 133 -297 183 -317
179 -706 322 -1003 371 -19 3 -46 7 -60 10 -14 3 -47 7 -75 10 -27 3 -66 8
-85 10 -44 6 -138 13 -259 20 -164 9 -254 17 -346 30 -123 18 -150 30 -168 76
-36 93 -172 121 -637 134 -200 5 -277 12 -285 25 -8 13 119 48 270 75 17 2 41
7 55 10 14 3 125 22 247 43 206 34 223 39 223 58 0 11 -4 24 -8 30 -5 5 -32
64 -62 132 l-53 122 -678 0 c-374 0 -679 -1 -679 -3z m2055 -961 c77 -3 158
-9 180 -11 22 -3 58 -7 80 -10 22 -3 65 -7 95 -10 206 -21 579 -134 793 -241
183 -92 376 -227 495 -345 54 -55 78 -97 55 -100 -5 0 -16 -2 -25 -4 -27 -5
-144 27 -373 104 -193 64 -294 92 -378 106 -17 3 -43 8 -57 10 -141 27 -334
39 -865 50 -159 4 -293 10 -296 13 -3 4 -31 70 -63 148 -101 247 -101 248
-306 208 -148 -28 -194 -61 -229 -166 -17 -52 -65 -256 -85 -358 -38 -201
-124 -511 -148 -535 -14 -13 -4 120 17 240 9 50 18 104 21 120 3 17 14 73 26
125 11 52 22 106 25 120 8 50 65 276 83 338 22 69 37 103 54 114 24 16 115 47
157 53 24 3 55 8 69 10 45 8 110 15 208 21 53 3 98 7 99 7 3 4 237 -1 368 -7z
m-437 -893 c53 -83 159 -323 312 -703 34 -85 68 -168 75 -185 40 -94 137 -357
132 -361 -3 -3 -19 21 -37 53 -38 70 -317 633 -355 718 -172 378 -203 466
-186 523 1 1 7 2 15 2 8 0 28 -21 44 -47z m802 -568 c74 -4 141 -8 150 -10 8
-2 44 -6 80 -10 36 -4 72 -9 82 -10 9 -2 38 -7 65 -10 257 -36 551 -198 768
-426 l60 -63 -65 55 c-36 30 -73 62 -84 71 -29 26 -101 57 -122 53 -10 -2 -24
-4 -31 -4 -30 -2 -106 -99 -257 -329 -104 -158 -172 -251 -188 -259 -194 -88
-765 464 -854 826 -23 97 -20 104 49 116 65 11 149 11 347 0z m-992 -390 c56
-50 103 -128 244 -405 l105 -205 -74 -135 c-41 -74 -93 -169 -115 -210 -51
-95 -60 -105 -84 -91 -25 14 -570 251 -577 251 -8 0 -63 -120 -84 -183 -11
-32 -17 -85 -18 -137 0 -80 13 -238 21 -251 2 -3 6 -21 9 -40 63 -382 212
-699 450 -957 53 -58 185 -168 263 -221 167 -112 408 -210 582 -237 19 -3 41
-7 48 -9 49 -17 288 -24 422 -13 97 8 254 41 355 74 117 37 307 133 410 205
111 79 283 249 351 349 122 177 213 390 253 590 31 155 32 164 46 561 4 132
15 194 28 172 7 -12 31 -121 42 -193 13 -79 12 -268 -1 -373 -23 -187 -87
-387 -180 -569 -47 -90 -147 -247 -194 -302 -235 -280 -494 -466 -785 -564
-636 -215 -1294 -61 -1760 412 -44 44 -94 99 -110 121 -17 22 -36 47 -44 55
-55 57 -205 326 -246 440 -88 245 -109 366 -109 615 0 123 5 223 13 260 7 33
14 71 17 85 28 144 107 344 190 483 108 179 310 408 393 445 63 29 86 25 139
-23z m2466 -460 c13 -28 28 -63 32 -79 6 -26 5 -27 -13 -17 -41 21 -134 197
-115 216 10 10 67 -62 96 -120z m-119 -112 c86 -185 107 -297 109 -575 4 -353
-39 -550 -134 -620 -39 -28 -108 -37 -168 -22 -87 23 -287 130 -351 188 -56
52 -73 109 -85 276 -8 107 -19 311 -20 373 l-1 59 185 114 c102 63 194 119
205 124 11 6 32 18 47 28 31 20 182 112 185 112 1 0 14 -26 28 -57z m-2287
-805 c5 -7 41 -75 80 -150 125 -244 214 -355 369 -457 132 -88 144 -132 65
-253 -87 -133 -164 -189 -264 -189 -65 0 -81 3 -155 33 -202 82 -427 331 -563
624 -90 195 -99 238 -55 278 23 22 101 47 187 61 18 3 92 19 163 34 156 34
160 34 173 19z m697 -73 c33 -24 166 -160 220 -223 l19 -23 -109 2 c-212 5
-351 55 -371 134 -9 36 17 70 79 102 88 47 109 48 162 8z m811 -444 c37 -22
131 -114 191 -186 22 -28 73 -88 112 -134 39 -47 71 -87 71 -90 0 -8 -188
-121 -258 -156 -142 -70 -428 -158 -622 -191 -14 -2 -68 -7 -120 -10 -127 -8
-139 0 -123 80 36 170 260 491 368 526 74 24 151 68 196 113 24 24 53 49 64
55 31 17 87 14 121 -7z"/>
</g>
</svg>
