<svg width="290" height="80" viewBox="0 0 290 80" fill="none" xmlns="http://www.w3.org/2000/svg">
<path d="M128.96 15L124.76 36H118.94L112.91 26.22L110.96 36H104.06L108.26 15H114.08L120.11 24.78L122.06 15H128.96ZM143.471 32.34H135.461L133.361 36H125.891L139.271 15H146.231L151.211 36H144.161L143.471 32.34ZM142.481 27.24L141.461 21.87L138.371 27.24H142.481ZM165.871 15C168.671 15 170.841 15.61 172.381 16.83C173.921 18.05 174.691 19.76 174.691 21.96C174.691 23.72 174.251 25.27 173.371 26.61C172.511 27.95 171.271 28.99 169.651 29.73C168.051 30.47 166.191 30.84 164.071 30.84H160.441L159.421 36H152.341L156.541 15H165.871ZM164.431 25.38C165.411 25.38 166.171 25.14 166.711 24.66C167.251 24.16 167.521 23.47 167.521 22.59C167.521 21.17 166.641 20.46 164.881 20.46H162.511L161.521 25.38H164.431ZM196.693 21.9C196.693 23.76 196.193 25.39 195.193 26.79C194.213 28.17 192.823 29.2 191.023 29.88L194.533 36H187.183L184.213 30.72H182.473L181.423 36H174.343L178.543 15H187.963C190.723 15 192.863 15.61 194.383 16.83C195.923 18.03 196.693 19.72 196.693 21.9ZM189.523 22.59C189.523 21.17 188.643 20.46 186.883 20.46H184.513L183.523 25.38H186.433C187.413 25.38 188.173 25.14 188.713 24.66C189.253 24.16 189.523 23.47 189.523 22.59ZM208.517 36.48C206.377 36.48 204.497 36.09 202.877 35.31C201.277 34.51 200.037 33.4 199.157 31.98C198.297 30.56 197.867 28.93 197.867 27.09C197.867 24.65 198.427 22.48 199.547 20.58C200.687 18.66 202.257 17.17 204.257 16.11C206.277 15.05 208.557 14.52 211.097 14.52C213.237 14.52 215.107 14.92 216.707 15.72C218.327 16.5 219.567 17.6 220.427 19.02C221.307 20.44 221.747 22.07 221.747 23.91C221.747 26.35 221.177 28.53 220.037 30.45C218.917 32.35 217.347 33.83 215.327 34.89C213.327 35.95 211.057 36.48 208.517 36.48ZM209.117 30.75C210.237 30.75 211.207 30.46 212.027 29.88C212.867 29.3 213.507 28.52 213.947 27.54C214.387 26.56 214.607 25.49 214.607 24.33C214.607 23.09 214.237 22.1 213.497 21.36C212.777 20.62 211.777 20.25 210.497 20.25C209.377 20.25 208.397 20.54 207.557 21.12C206.737 21.7 206.107 22.48 205.667 23.46C205.227 24.44 205.007 25.51 205.007 26.67C205.007 27.91 205.367 28.9 206.087 29.64C206.827 30.38 207.837 30.75 209.117 30.75ZM237.366 24.57L244.206 36H236.316L232.056 29.16L230.076 30.99L229.086 36H222.126L226.326 15H233.286L231.786 22.44L239.766 15H247.896L237.366 24.57ZM259.311 32.34H251.301L249.201 36H241.731L255.111 15H262.071L267.051 36H260.001L259.311 32.34ZM258.321 27.24L257.301 21.87L254.211 27.24H258.321ZM274.776 20.49H268.626L269.736 15H289.116L288.006 20.49H281.856L278.766 36H271.686L274.776 20.49Z" fill="white"/>
<path d="M133.4 45L129.26 66H122.81L124.67 56.43L118.76 64.11H115.64L112.4 56.55L110.51 66H104.06L108.26 45H114.02L118.58 56.16L127.37 45H133.4ZM144.503 66.48C142.363 66.48 140.483 66.09 138.863 65.31C137.263 64.51 136.023 63.4 135.143 61.98C134.283 60.56 133.853 58.93 133.853 57.09C133.853 54.65 134.413 52.48 135.533 50.58C136.673 48.66 138.243 47.17 140.243 46.11C142.263 45.05 144.543 44.52 147.083 44.52C149.223 44.52 151.093 44.92 152.693 45.72C154.313 46.5 155.553 47.6 156.413 49.02C157.293 50.44 157.733 52.07 157.733 53.91C157.733 56.35 157.163 58.53 156.023 60.45C154.903 62.35 153.333 63.83 151.313 64.89C149.313 65.95 147.043 66.48 144.503 66.48ZM145.103 60.75C146.223 60.75 147.193 60.46 148.013 59.88C148.853 59.3 149.493 58.52 149.933 57.54C150.373 56.56 150.593 55.49 150.593 54.33C150.593 53.09 150.223 52.1 149.483 51.36C148.763 50.62 147.763 50.25 146.483 50.25C145.363 50.25 144.383 50.54 143.543 51.12C142.723 51.7 142.093 52.48 141.653 53.46C141.213 54.44 140.993 55.51 140.993 56.67C140.993 57.91 141.353 58.9 142.073 59.64C142.813 60.38 143.823 60.75 145.103 60.75ZM165.47 50.49H159.32L160.43 45H179.81L178.7 50.49H172.55L169.46 66H162.38L165.47 50.49ZM188.976 66.48C186.836 66.48 184.956 66.09 183.336 65.31C181.736 64.51 180.496 63.4 179.616 61.98C178.756 60.56 178.326 58.93 178.326 57.09C178.326 54.65 178.886 52.48 180.006 50.58C181.146 48.66 182.716 47.17 184.716 46.11C186.736 45.05 189.016 44.52 191.556 44.52C193.696 44.52 195.566 44.92 197.166 45.72C198.786 46.5 200.026 47.6 200.886 49.02C201.766 50.44 202.206 52.07 202.206 53.91C202.206 56.35 201.636 58.53 200.496 60.45C199.376 62.35 197.806 63.83 195.786 64.89C193.786 65.95 191.516 66.48 188.976 66.48ZM189.576 60.75C190.696 60.75 191.666 60.46 192.486 59.88C193.326 59.3 193.966 58.52 194.406 57.54C194.846 56.56 195.066 55.49 195.066 54.33C195.066 53.09 194.696 52.1 193.956 51.36C193.236 50.62 192.236 50.25 190.956 50.25C189.836 50.25 188.856 50.54 188.016 51.12C187.196 51.7 186.566 52.48 186.126 53.46C185.686 54.44 185.466 55.51 185.466 56.67C185.466 57.91 185.826 58.9 186.546 59.64C187.286 60.38 188.296 60.75 189.576 60.75Z" fill="#FFC87A"/>
<path d="M205.885 66.3C204.785 66.3 203.885 65.97 203.185 65.31C202.505 64.63 202.165 63.77 202.165 62.73C202.165 61.49 202.575 60.49 203.395 59.73C204.215 58.95 205.225 58.56 206.425 58.56C207.525 58.56 208.415 58.89 209.095 59.55C209.775 60.21 210.115 61.07 210.115 62.13C210.115 63.37 209.705 64.38 208.885 65.16C208.065 65.92 207.065 66.3 205.885 66.3ZM234.047 51.9C234.047 53.76 233.547 55.39 232.547 56.79C231.567 58.17 230.177 59.2 228.377 59.88L231.887 66H224.537L221.567 60.72H219.827L218.777 66H211.697L215.897 45H225.317C228.077 45 230.217 45.61 231.737 46.83C233.277 48.03 234.047 49.72 234.047 51.9ZM226.877 52.59C226.877 51.17 225.997 50.46 224.237 50.46H221.867L220.877 55.38H223.787C224.767 55.38 225.527 55.14 226.067 54.66C226.607 54.16 226.877 53.47 226.877 52.59ZM244.64 66.48C242.76 66.48 241.13 66.17 239.75 65.55C238.39 64.91 237.34 64.01 236.6 62.85C235.88 61.69 235.52 60.33 235.52 58.77C235.52 58.13 235.6 57.39 235.76 56.55L238.07 45H245.15L242.87 56.43C242.75 56.99 242.69 57.5 242.69 57.96C242.69 58.9 242.93 59.6 243.41 60.06C243.89 60.52 244.59 60.75 245.51 60.75C246.55 60.75 247.36 60.42 247.94 59.76C248.52 59.1 248.97 57.99 249.29 56.43L251.57 45H258.53L256.16 56.85C255.52 60.03 254.24 62.43 252.32 64.05C250.4 65.67 247.84 66.48 244.64 66.48Z" fill="white"/>
<g clip-path="url(#clip0)">
<rect width="80" height="80" fill="white"/>
<path fill-rule="evenodd" clip-rule="evenodd" d="M-38.6255 -120.935C-39.829 -121.332 -34.7979 -124.777 -31.1084 -126.082C-22.7064 -129.053 -12.807 -124.584 -8.76958 -115.996C-5.80079 -109.682 -6.69551 -108.872 -15.8657 -109.569C-23.4571 -110.148 -24.1002 -109.729 -23.2701 -104.756C-22.8446 -102.209 -22.8472 -100.176 -23.2779 -98.7444C-23.8494 -96.8456 -23.7002 -96.2467 -22.0568 -93.8387C-20.0042 -90.8313 -19.2509 -90.3659 -19.7996 -92.4434C-20.0915 -93.549 -19.6379 -94.0168 -17.2687 -95.0546C-13.8939 -96.5339 -13.8926 -96.5365 -16.0117 -99.6247C-18.0904 -102.655 -18.0819 -102.699 -15.0095 -104.804C-13.5897 -105.777 -12.4278 -107.011 -12.4278 -107.547C-12.4278 -108.083 -12.1345 -108.521 -11.7762 -108.521C-10.6612 -108.521 -11.0079 -104.008 -12.1567 -103.571C-12.9849 -103.256 -13.1459 -102.351 -12.9713 -98.9857C-12.7751 -95.2076 -12.8891 -94.7436 -14.1285 -94.2899C-15.175 -93.9058 -15.6044 -93.0301 -15.9276 -90.6182C-16.619 -85.4571 -17.3189 -84.9298 -22.2119 -85.8831C-26.7804 -86.7737 -28.6414 -86.2638 -29.9485 -83.7642C-30.561 -82.5929 -36.6908 -65.734 -37.6252 -62.6491C-38.8203 -58.7058 -12.0759 -51.1625 -6.68634 -53.9228C-5.57924 -54.4901 -4.14503 -54.9587 -3.50057 -54.9638C-0.445793 -54.9896 -0.302436 -55.9487 -2.63588 -60.7271C-4.06324 -63.6489 -4.63989 -64.9321 -5.34753 -65.0073C-5.9237 -65.0686 -6.58669 -64.3292 -7.86643 -63.0215C-12.0355 -58.7613 -13.1198 -62.114 -10.4006 -70.8597C-7.20701 -81.1304 -3.95671 -81.1311 -3.95671 -70.861C-3.95671 -67.4973 1.41001 -55.8254 3.19675 -55.3033C4.86555 -54.816 13.8716 -54.8083 15.4289 -55.2936C16.0734 -55.4943 16.4775 -55.652 16.6647 -55.5163C16.9855 -55.2837 16.6694 -54.1893 15.8349 -50.9727C15.0647 -48.0014 14.8796 -45.4153 15.1566 -41.4933L15.5384 -36.0991L13.4474 -36.4741C7.80631 -37.4848 -0.357181 -37.6778 -4.52754 -36.8981C-11.9214 -35.5164 -14.5618 -37.9204 -7.32102 -39.4423C-1.85264 -40.5917 -1.82591 -40.6213 -2.9669 -44.3466C-4.42912 -49.1205 -4.35095 -49.3612 -1.51314 -48.8436C1.25429 -48.3396 5.06363 -46.6971 8.42404 -44.5608L10.7047 -43.1106L8.50158 -45.4398C7.28957 -46.7203 5.45722 -48.1136 4.42896 -48.5351C1.76124 -49.6297 2.06097 -50.0944 6.49068 -51.735C11.8685 -53.7272 10.9849 -54.0713 5.41878 -52.1525C-4.67479 -48.6732 -18.6618 -47.8942 -33.9312 -49.9602L-44.6829 -51.4148L-44.2861 -55.2768L-45.588 -53.3807C-47.741 -50.2441 -46.9955 -49.9414 -30.3473 -47.185C-21.136 -45.6604 -18.1043 -45.1866 -18.109 -44.7451C-18.1116 -44.509 -18.9817 -44.2822 -20.2394 -43.909C-22.6165 -43.2029 -23.893 -43.2926 -30.2398 -44.6086C-34.2414 -45.4379 -39.7143 -46.5002 -42.4023 -46.9688C-47.1146 -47.7899 -49.1355 -47.9561 -49.5354 -48.841C-49.8823 -49.6084 -49.0096 -50.9165 -47.6159 -53.6614C-46.1823 -56.4863 -45.0087 -58.9239 -45.0087 -59.0781C-45.0087 -59.4131 -55.2783 -63.3441 -56.1527 -63.3441C-57.4032 -63.3441 -62.1808 -46.5667 -61.2028 -45.6115C-60.5322 -44.9564 -42.9829 -41.1725 -36.4204 -40.2677C-26.4689 -38.895 -14.3826 -40.4361 -14.3826 -43.0777C-14.3826 -44.6131 -11.3976 -46.1091 -9.90928 -45.3198C-6.59188 -43.5617 -8.27108 -38.9963 -11.9658 -39.7282C-13.1537 -39.9637 -14.73 -39.6314 -16.3786 -38.7988C-19.1108 -37.4184 -32.7707 -37.7688 -41.6763 -39.448C-44.5121 -39.9828 -45.7677 -40.2202 -46.4826 -39.7117C-47.0514 -39.3071 -47.2779 -38.4302 -47.6856 -36.8549C-48.0906 -35.2898 -48.3231 -34.3147 -48.9145 -33.6553C-49.9236 -32.5302 -51.9774 -32.3242 -57.7153 -31.6744L-65.5347 -30.7889L-61.625 -30.3565C-59.4747 -30.119 -56.0289 -29.8925 -53.9685 -29.8543C-50.7782 -29.7943 -50.2217 -29.6059 -50.2217 -28.5862C-50.2217 -27.5684 -49.5095 -27.3231 -45.4974 -26.9585C-28.2934 -25.3948 -4.73865 -19.4804 -1.30723 -15.8624L0.254049 -14.2166L-1.50336 -9.16972C-3.33767 -3.90271 -10.1608 11.2736 -16.8999 25.0739C-19.2001 29.7843 -20.4664 32.0246 -19.8842 33.591C-19.2675 35.2504 -16.5759 36.1535 -10.8411 38.436C-2.17129 41.8863 -1.40757 42.6562 -5.0397 44.2832C-8.20982 45.7037 -30.6549 45.847 -34.8148 44.4743L-37.3281 43.6449L-37.0753 39.2118C-36.7547 33.5904 -36.5234 33.3814 -31.4271 34.0952C-24.5883 35.0523 -22.9977 33.5124 -29.4292 32.1609C-31.1187 31.8057 -32.2688 31.686 -32.8381 31.0535C-34.0299 29.7295 -32.6763 26.1578 -28.3983 13.4712C-25.3488 4.4273 -22.8537 -3.19602 -22.8537 -3.47027C-22.8537 -3.74459 -24.6131 -3.96849 -26.7634 -3.96849C-28.8176 -3.96849 -29.8935 -3.99598 -30.3071 -3.49114C-30.7761 -2.91871 -30.3933 -1.66181 -29.6195 1.09582L-28.5651 4.85005L-32.6254 13.5098C-40.362 30.0111 -41.8699 36.8742 -38.9506 42.3058C-38.2506 43.609 -37.8601 44.3004 -38.0643 44.6672C-38.3041 45.0981 -39.3643 45.0809 -41.707 45.0809C-43.6538 45.0809 -44.6941 45.1091 -45.3188 44.6183C-46.0742 44.0249 -46.2219 42.6729 -46.63 39.5951C-47.9782 29.429 -52.6724 18.4735 -59.3508 9.90735C-64.165 3.73291 -65.4038 2.97006 -76.6122 -0.717049C-85.2033 -3.54322 -87.5834 -4.3045 -87.7022 -5.32434C-87.75 -5.73424 -87.4325 -6.18591 -87.0062 -6.83019C-86.0868 -8.22031 -86.0145 -8.84057 -86.6198 -10.1565C-89.2211 -15.8107 -86.2067 -20.7486 -80.1538 -20.7486C-76.3705 -20.7486 -77.0221 -21.6044 -82.02 -23.1985C-88.8953 -25.3915 -88.9819 -25.5006 -88.0788 -30.8056C-85.1002 -48.3047 -78.1253 -65.4636 -69.7455 -75.9079C-65.6898 -80.9633 -65.4663 -81.0846 -59.0185 -81.752C-52.0983 -82.4677 -51.4441 -83.0033 -57.0637 -83.3512L-62.2766 -83.6739L-59.259 -85.4655C-56.5235 -87.0886 -51.2187 -89.0797 -46.9636 -90.0794C-46.0546 -90.293 -44.3643 -91.7761 -43.1392 -93.4353L-40.9439 -96.4087L-42.4185 -99.007C-44.4262 -102.545 -44.8934 -109.17 -43.4416 -113.501L-42.3632 -116.716L-35.052 -117.133C-31.0309 -117.363 -25.6882 -117.584 -23.1795 -117.625C-18.8313 -117.696 -19.0685 -117.768 -28.2445 -119.192C-33.5389 -120.014 -38.2104 -120.798 -38.6255 -120.935ZM-27.4326 -93.023C-28.0927 -92.6725 -29.6051 -92.3931 -30.793 -92.4009C-31.9816 -92.4086 -34.1267 -92.941 -35.5603 -93.5839L-38.1667 -94.7532L-41.318 -91.3159C-45.0798 -87.2132 -45.0035 -86.6492 -40.5393 -85.5178C-36.5663 -84.5103 -34.403 -85.2505 -31.1104 -88.7421L-29.25 -90.7138L-28.1429 -89.2597C-27.1146 -87.9095 -24.8086 -87.8218 -24.8086 -89.1326C-24.8086 -91.3637 -26.3242 -93.6102 -27.4326 -93.023ZM-51.0212 -4.89592C-63.183 -3.96723 -64.9326 -3.96597 -70.1827 -4.88371C-73.3607 -5.43936 -76.6937 -6.08349 -77.5897 -6.31385L-79.2187 -6.734L-77.3329 -4.73528C-72.5676 0.316816 -62.753 0.506603 -42.8467 -4.06728C-34.7132 -5.93569 -35.8711 -6.05316 -51.0212 -4.89592Z" fill="#0FBCFF"/>
<path fill-rule="evenodd" clip-rule="evenodd" d="M-166 -8.24867L-165.919 -7.64591C-165.919 -6.6352 -163.603 -6.31251 -163.603 -6.31251C-163.603 -6.31251 -148.495 -5.48279 -138.842 -4.89592C-129.393 -4.32146 -112.801 -3.10432 -114.732 -2.39827C-120.64 -0.239468 -135.584 8.19256 -135.584 9.3665C-135.584 9.49815 -134.123 8.8734 -132.339 7.97756C-109.829 -3.31924 -89.4335 -1.88004 -74.3316 12.072L-70.0961 15.985L-74.3316 13.8054C-89.0289 6.24214 -108.109 6.15824 -131.596 13.5531C-140.429 16.3348 -151.719 22.4924 -147.985 22.4924C-145.698 22.4924 -125.877 24.5802 -124.18 24.9997C-122.922 25.3108 -127.451 25.7903 -136.887 26.3447C-153.508 27.3205 -154.092 27.4502 -155.549 30.4771C-158.291 36.1707 -155.575 37.9184 -142.392 38.9427C-135.504 39.4775 -133.032 39.4322 -132.279 40.5366C-131.734 41.3365 -132.091 42.7397 -132.326 45.4036L-132.78 50.5667L-132.977 42.4994H-136.491C-143.111 42.4994 -141.366 55.2613 -133.54 64.0663C-132.067 65.7243 -130.972 67.1667 -131.105 67.2726C-131.239 67.3778 -137.506 68.5524 -145.032 69.8825C-152.558 71.212 -158.851 72.4325 -159.016 72.5945C-159.779 73.3431 -107.135 72.4202 -104.79 71.6438C-100.282 70.151 -94.4353 65.6088 -91.4365 61.2692C-89.6825 58.7306 -88.861 57.653 -89.1309 57.0778C-89.3607 56.5879 -90.382 56.4622 -92.2928 56.1087L-95.4857 55.5181L-98.9367 59.2956C-107.82 69.0177 -123.049 67.674 -130.144 56.5424C-131.037 55.1412 -131.622 53.8498 -131.443 53.673C-131.265 53.4955 -130.665 54.2183 -130.112 55.2787C-124.537 65.956 -108.699 67.5785 -100.486 58.3133C-98.0909 55.6124 -97.7292 53.8737 -100.002 55.9886C-101.585 57.4614 -102.684 57.0174 -101.976 55.1903C-101.706 54.4926 -102.126 54.119 -103.44 53.8892C-106.402 53.371 -90.1522 54.1615 -84.4317 54.814C-75.8583 55.7918 -60.7714 56.1719 -53.6101 55.5898L-46.8984 55.0444L-38.9076 60.2475L13.8396 60.6509L17.3063 57.2601C19.2129 55.3949 20.8569 53.9976 20.9605 54.1545C21.0641 54.3106 21.9327 56.0777 22.8906 58.081C23.8485 60.0843 25.5264 62.7316 26.6192 63.9643L28.606 66.2058L25.8457 66.5911C9.94101 68.8105 -9.23288 71.6606 -10.7987 72.0381C-11.8739 72.2976 1.46802 72.6655 18.8499 72.8558C54.5893 73.2463 55.6162 73.145 62.3142 68.5769C76.0516 59.2052 78.0371 39.2156 66.3523 27.9143L63.8149 25.4605L67.2287 24.595C73.2399 23.0713 72.8509 21.0538 65.5664 15.9868C58.4351 11.0271 52.3132 8.80502 44.7518 8.43324C40.2726 8.2132 38.3985 7.88342 38.3985 7.31477C38.3985 6.21055 36.2918 5.74329 30.9049 5.65418C26.034 5.57351 26.6915 5.2134 33.9688 3.97493L37.0327 3.45347L34.8954 -1.38694C30.8938 -10.4488 19.8254 -26.2964 13.0779 -32.6225L11.0833 -34.4934L6.16945 -33.6609C3.46718 -33.2033 1.25624 -32.7005 1.25624 -32.5437C1.25624 -32.3875 5.65466 -24.8823 11.0305 -15.8656C17.3284 -5.30315 20.8048 1.1668 20.8048 2.3253C20.8048 3.31402 19.9401 9.19996 18.8832 15.4054C14.7135 39.8888 13.6305 46.1097 13.2786 47.596C12.913 49.1411 12.9033 49.1424 5.94398 48.748C2.11117 48.5312 -12.1672 47.7406 -25.786 46.9907C-47.3766 45.8025 -51.4548 45.7757 -52.1277 44.2629C-52.3617 43.737 -52.1841 43.0316 -52.1876 42.0354C-52.2443 26.6467 -63.256 7.01082 -75.0418 1.28364C-79.0473 -0.662847 -90.5901 -3.95754 -93.4748 -3.97818C-94.1176 -3.98283 -94.6101 -3.85244 -95.0158 -3.98432C-95.6641 -4.19507 -96.0904 -5.07578 -96.5528 -8.24867H-166ZM61.1178 17.033C58.2729 14.6619 54.9548 13.0826 50.3205 11.8931C45.0457 10.5392 34.5794 10.6566 33.0363 12.0862C32.3886 12.6863 29.9803 24.4724 30.5804 24.1052C30.843 23.9439 31.5852 21.3249 32.2296 18.2845C33.0432 14.4438 33.2708 13.1444 34.0475 12.5555C34.5014 12.2114 35.1427 12.11 36.198 11.8861C38.0766 11.4873 38.3033 11.6311 39.1641 13.7674L40.0953 16.0804L46.9034 16.2456C52.3106 16.3767 54.6838 16.7574 58.4358 18.096C63.5816 19.9321 64.2697 19.6591 61.1178 17.033ZM41.3744 29.6614C45.4796 37.9823 45.5142 37.8306 41.6781 28.3009C38.9445 21.5094 37.7469 19.3777 37.7469 21.3036C37.7469 21.8567 39.3792 25.618 41.3744 29.6614ZM60.1104 32.3978C58.5589 30.9134 55.9472 29.258 54.2543 28.6868C51.4361 27.7355 42.9598 27.216 42.9598 27.9943C42.9598 32.2887 51.5716 40.7091 53.3258 38.1288C53.5376 37.8165 54.5912 36.2043 55.6664 34.5456C57.9516 31.0205 58.2129 30.9586 60.8865 33.3026C61.9995 34.2785 61.6502 33.8719 60.1104 32.3978ZM40.311 39.153L38.3679 35.3401C36.1811 31.0496 35.4519 30.7701 33.0481 33.3026C19.3211 47.7683 33.8554 71.1675 53.0195 65.4552C62.5892 62.6026 69.0545 51.611 66.497 42.5426C66.2467 41.6546 66.0584 43.1951 66.0636 46.0922C66.1066 69.2617 34.0809 71.6606 29.8577 48.8042C29.2491 45.5108 29.2361 44.0677 29.8024 42.8363L30.5497 41.2118L37.4908 44.2523L40.311 39.153ZM64.8347 38.6271C65.0139 38.6271 64.847 38.0462 64.4633 37.3363C64.0795 36.6264 63.6194 36.0455 63.4402 36.0455C63.261 36.0455 63.4278 36.6264 63.8116 37.3363C64.1954 38.0462 64.6555 38.6271 64.8347 38.6271ZM59.0529 51.8278C63.1111 54.0744 64.49 52.2615 64.43 44.7582C64.4163 42.9834 64.0514 40.7446 63.6194 39.7836L62.8342 38.0359L55.6664 42.4032L55.886 46.2994C56.1043 50.1769 56.1199 50.2047 59.0529 51.8278ZM-122.133 41.2086C-120.093 41.2086 -118.546 41.1008 -118.696 40.9685C-119.262 40.4683 -129.458 39.8746 -129.904 40.316C-130.976 41.3777 -130.313 43.6088 -128.711 44.3316C-127.619 44.8247 -127.112 45.0853 -126.821 44.9355C-126.535 44.7887 -126.456 44.2476 -126.233 43.1448C-125.854 41.2654 -125.733 41.2086 -122.133 41.2086ZM-96.1608 43.1448C-94.3675 43.9083 -93.7296 43.9083 -94.2059 43.1448C-94.4275 42.7898 -95.2511 42.52 -96.0363 42.5446C-97.4126 42.5884 -97.4171 42.6098 -96.1608 43.1448ZM-91.5011 47.0939C-73.8604 48.1097 -74.703 47.5573 -93.9375 45.4946C-103.045 44.5181 -111.409 43.5655 -112.524 43.3771C-114.678 43.0131 -115.354 44.0012 -115.374 47.545L-115.384 49.041L-113.339 47.5999C-112.991 47.3544 -112.698 47.1457 -112.385 46.9721C-110.607 45.9867 -108.19 46.1325 -91.5011 47.0939ZM-56.0941 49.2043C-56.0986 48.8887 -57.1986 47.9239 -58.5376 47.0597C-60.9734 45.4895 -85.6711 42.6433 -86.4217 43.8463C-86.7156 44.3168 -84.1802 44.6834 -73.0283 45.7831C-67.2824 46.3498 -65.2161 46.8099 -64.1696 47.756C-62.751 49.0391 -56.0797 50.235 -56.0941 49.2043ZM41.7133 54.5746C40.6687 53.964 39.1765 52.1589 38.3966 50.5635C37.6172 48.9681 36.9317 47.6941 36.8744 47.7335C36.8164 47.7722 35.4825 48.0542 33.9102 48.3601C30.1953 49.083 30.1672 49.1288 31.5721 52.2138C34.3989 58.423 39.6509 61.7597 42.0417 58.8651C44.0304 56.4565 43.9881 55.906 41.7133 54.5746ZM47.7486 51.5348L46.2179 49.9213C44.497 48.1065 44.3986 48.0813 42.7513 49.03C41.1386 49.9594 43.0361 51.4838 45.8426 51.5141L47.7486 51.5348ZM-124.971 57.3226C-122.314 57.2536 -121.823 55.6388 -123.63 52.9056C-124.597 51.4419 -125.557 50.2834 -125.763 50.3318C-125.967 50.3802 -126.795 50.5454 -127.601 50.6997C-129.829 51.1244 -127.343 57.3846 -124.971 57.3226ZM-107.727 53.2528C-107.279 53.4323 -106.546 53.4323 -106.098 53.2528C-105.65 53.0741 -106.017 52.9276 -106.912 52.9276C-107.808 52.9276 -108.175 53.0741 -107.727 53.2528ZM58.5883 58.5353L56.4757 56.0144C54.1977 53.2967 53.318 52.9644 52.1353 54.3758C51.7189 54.8734 50.6692 55.4568 49.8031 55.6717C48.5201 55.9906 45.5663 60.5877 45.5663 62.2657C45.5663 63.4474 53.3655 61.6938 56.4757 59.8125L58.5883 58.5353ZM-113.478 62.0701C-108.895 62.0624 -106.778 61.4105 -107.038 60.0869C-107.358 58.4618 -116.858 58.3695 -117.875 59.9817C-118.903 61.6125 -117.925 62.0772 -113.478 62.0701Z" fill="#0FBCFF"/>
<path d="M19.8274 -45.9187C19.8274 -49.2909 19.5661 -52.8863 19.2468 -53.9086C18.7965 -55.3504 18.861 -55.7034 19.5328 -55.4814C23.1806 -54.2771 24.7223 -42.3762 21.7425 -38.4232C19.7824 -35.8236 18.5104 -35.5712 19.2468 -37.9288C19.5661 -38.9511 19.8274 -42.5465 19.8274 -45.9187Z" fill="#0FBCFF"/>
<path d="M2.67676 -14.2514C-6.97502 -29.9182 -7.46893 -31.9474 -2.37979 -35.0214C0.330292 -36.658 0.575285 -36.5741 0.193437 -34.1404C-0.0808876 -32.3894 1.05489 -29.8034 7.06737 -18.4897C11.0292 -11.0355 15.0302 -2.69063 15.9581 0.0541545L17.6464 5.04433L14.6079 21.352C12.9371 30.3209 11.2547 39.499 10.8689 41.7482C10.001 46.8106 9.56437 47.0229 0.0735457 47.0003L-6.889 46.9842L-2.77663 45.0093C-1.30371 44.3018 -0.299731 43.8738 0.478918 43.1931C2.32416 41.5798 2.90411 38.5469 5.46113 27.0101C11.2983 0.674411 11.2279 -0.371114 2.67676 -14.2514Z" fill="#0FBCFF"/>
<path d="M-141.74 -0.169746C-140.664 -1.13783 -138.753 -1.4825 -131.965 -1.93235C-127.325 -2.24015 -122.796 -2.51448 -121.9 -2.54158L-120.271 -2.59066L-121.9 -1.88587C-129.014 1.18941 -133.254 3.47986 -136.909 6.22213C-140.982 9.27874 -141.265 9.3858 -143.425 8.69401C-146.399 7.74271 -147.171 3.12558 -144.579 1.80061C-143.753 1.37849 -142.475 0.491792 -141.74 -0.169746Z" fill="#0FBCFF"/>
</g>
<defs>
<clipPath id="clip0">
<rect width="80" height="80" rx="12" fill="white"/>
</clipPath>
</defs>
</svg>
