<svg width="20" height="20" viewBox="0 0 20 20" fill="none" xmlns="http://www.w3.org/2000/svg">
<g clip-path="url(#clip0)">
<path d="M0.345884 9.33L5.23671 11.7675C5.42588 11.8608 5.64921 11.8542 5.83005 11.7483L10.1834 9.21749L7.54838 11.5525C7.41421 11.6717 7.33755 11.8417 7.33755 12.0208V17.7083C7.33755 18.3083 8.10338 18.5608 8.46255 18.0842L10.5767 15.2733L15.805 18.2508C16.1717 18.4617 16.6417 18.25 16.7267 17.8308L19.9875 1.58083C20.085 1.0925 19.5992 0.694162 19.1475 0.875829L0.39755 8.18833C-0.105783 8.385 -0.138283 9.08916 0.345884 9.33V9.33ZM18.5375 2.45583L15.6717 16.7367L10.7175 13.915C10.4475 13.7608 10.1 13.8292 9.90838 14.0825L8.58755 15.8383V12.3017L15.7134 5.98833C16.2775 5.48916 15.6292 4.60166 14.985 4.97999L5.49338 10.4983L2.16672 8.84083L18.5375 2.45583Z" fill="white" fill-opacity="0.9"/>
</g>
<defs>
<clipPath id="clip0">
<rect width="20" height="20" fill="white"/>
</clipPath>
</defs>
</svg>
