<svg width="48" height="48" viewBox="0 0 48 48" fill="none" xmlns="http://www.w3.org/2000/svg">
<g clip-path="url(#clip0)">
<path d="M28.606 14.0567L25.4057 23.7643V42.2637H45.085V23.7643L41.8846 14.0567H36.6509V7.02833C36.6509 3.15291 33.498 0 29.6226 0H18.3772C14.5018 0 11.3489 3.15291 11.3489 7.02833V8.43399H2.91492V25.3957H6.26312L8.53758 29.9445V43.783L12.7546 48L16.9716 43.783V40.858H19.7829V38.0467H16.9716V35.2353H19.7829V32.424H16.9716V29.9445L19.246 25.3957H22.5942V8.43399H14.1602V7.02833C14.1602 4.70307 16.052 2.81133 18.3772 2.81133H29.6226C31.9478 2.81133 33.8396 4.70307 33.8396 7.02833V14.0567H28.606ZM11.349 11.2453H14.1603V14.0567H11.349V11.2453ZM12.7547 44.0242L11.349 42.6185V31.0183H14.1603V42.6185L12.7547 44.0242ZM14.6972 28.207H10.812L9.40637 25.3957H16.1029L14.6972 28.207ZM19.783 22.5844H5.72634V11.2453H8.53767V16.868H16.9717V11.2453H19.783V22.5844ZM42.2736 24.2158V39.4523H28.217V24.2158L30.6392 16.868H39.8513L42.2736 24.2158Z" fill="#FF961C"/>
<path d="M39.4623 22.5844H31.0283V36.641H39.4623V22.5844ZM36.651 25.3957V28.207H33.8396V25.3957H36.651ZM33.8396 33.8297V31.0183H36.651V33.8297H33.8396Z" fill="#FF961C"/>
</g>
</svg>