<svg width="1928" height="322" viewBox="0 0 1928 322" fill="none" xmlns="http://www.w3.org/2000/svg">
<path d="M282.5 6.99996V6.49996H282H1.28003H0.780029V6.99996V315V315.5H1.28003H72.12H72.62V315V65.58H210.66V315V315.5H211.16H282H282.5V315V6.99996ZM609.57 178.432L609.572 178.429C620.482 161.326 625.93 141.43 625.93 118.76C625.93 95.798 620.483 75.9002 609.57 59.0877C598.659 42.2786 583.033 29.3126 562.717 20.1846C542.691 11.0555 519.004 6.49996 491.67 6.49996H358.35H357.85V6.99996V315V315.5H358.35H429.63H430.13V315V230.58H491.67C519.003 230.58 542.688 226.172 562.712 217.337L562.715 217.336C583.033 208.208 598.658 195.242 609.57 178.432ZM536.228 79.5425L536.234 79.5474C547.241 88.5263 552.77 101.57 552.77 118.76C552.77 135.652 547.243 148.701 536.23 157.976C525.207 166.966 509.06 171.5 487.71 171.5H430.13V65.58H487.71C509.06 65.58 525.206 70.2603 536.228 79.5425ZM736.791 300.04L736.793 300.041C762.686 313.87 791.661 320.78 823.709 320.78C855.756 320.78 884.586 313.87 910.186 300.04C935.782 286.212 955.942 267.231 970.656 243.1L970.657 243.098C985.374 218.668 992.729 191.298 992.729 161C992.729 130.703 985.374 103.479 970.657 79.342C955.943 54.9171 935.783 35.7883 910.186 21.9601C884.586 8.13003 855.756 1.21997 823.709 1.21997C791.661 1.21997 762.686 8.13005 736.793 21.9589L736.791 21.9601C711.194 35.7883 691.034 54.9171 676.32 79.342L676.32 79.3435C661.896 103.48 654.689 130.704 654.689 161C654.689 191.296 661.896 218.665 676.318 243.094L676.322 243.1C691.036 267.231 711.196 286.212 736.791 300.04ZM906.874 211.793L906.87 211.799C898.701 226.679 887.327 238.345 872.742 246.805C858.157 254.972 841.816 259.06 823.709 259.06C805.602 259.06 789.261 254.972 774.676 246.805C760.09 238.345 748.568 226.678 740.106 211.797C731.938 196.92 727.849 179.992 727.849 161C727.849 142.008 731.938 125.08 740.106 110.203C748.568 95.3222 760.089 83.8032 774.673 75.6363L774.68 75.6325C789.265 67.1732 805.604 62.94 823.709 62.94C841.814 62.94 858.153 67.1732 872.738 75.6325L872.744 75.6362C887.328 83.8031 898.701 95.3214 906.87 110.201L906.874 110.207C915.333 125.084 919.569 142.01 919.569 161C919.569 179.99 915.333 196.916 906.874 211.793ZM1327.42 315.5H1328.34H1393.08H1393.41L1393.54 315.191L1420.69 249.5H1563.02L1590.17 315.191L1590.3 315.5H1590.64H1665.44H1666.21L1665.89 314.796L1528.17 6.79586L1528.04 6.49996H1527.72H1457.32H1456.99L1456.86 6.7964L1322.95 307.231L1224.18 155.725L1324.75 7.28041L1325.28 6.49996H1324.34H1249.1H1248.83L1248.68 6.72741L1167.87 131.02H1117.6V6.99996V6.49996H1117.1H1046.26H1045.76V6.99996V315V315.5H1046.26H1117.1H1117.6V315V191.42H1166.11L1246.04 315.271L1246.19 315.5H1246.46H1319.27H1320.04H1327.42ZM1926.21 65.58H1926.71V65.08V6.99996V6.49996H1926.21H1659.13H1658.63V6.99996V65.08V65.58H1659.13H1756.75V315V315.5H1757.25H1827.65H1828.15V315V65.58H1926.21ZM1443.98 194.38L1492.08 78.2666L1540.17 194.38H1443.98Z" stroke="white" stroke-opacity="0.5"/>
</svg>
